<svg width="32" height="33" viewBox="0 0 32 33" fill="none" xmlns="http://www.w3.org/2000/svg">
<g id="Social Icons" clip-path="url(#clip0_1_1789)">
<path id="Vector" d="M27.0894 6.02628C25.0498 5.09044 22.8626 4.40095 20.5759 4.00605C20.5342 3.99843 20.4926 4.01748 20.4712 4.05557C20.1899 4.55586 19.8783 5.20852 19.6601 5.72151C17.2005 5.35329 14.7536 5.35329 12.3444 5.72151C12.1262 5.19712 11.8033 4.55586 11.5208 4.05557C11.4993 4.01875 11.4577 3.9997 11.4161 4.00605C9.13055 4.39969 6.94341 5.08917 4.90258 6.02628C4.88491 6.0339 4.86977 6.04661 4.85972 6.0631C0.711189 12.2609 -0.425267 18.3064 0.13224 24.2769C0.134763 24.3061 0.15116 24.3341 0.173864 24.3518C2.91095 26.3619 5.56228 27.5822 8.16437 28.391C8.20602 28.4037 8.25014 28.3885 8.27664 28.3542C8.89217 27.5136 9.44086 26.6273 9.9113 25.6952C9.93906 25.6407 9.91256 25.5759 9.85582 25.5543C8.98551 25.2242 8.1568 24.8216 7.35964 24.3645C7.29659 24.3277 7.29154 24.2375 7.34954 24.1943C7.5173 24.0686 7.68509 23.9379 7.84527 23.8058C7.87425 23.7817 7.91464 23.7766 7.94871 23.7918C13.1857 26.1829 18.8554 26.1829 24.0306 23.7918C24.0647 23.7753 24.1051 23.7804 24.1353 23.8045C24.2955 23.9366 24.4633 24.0686 24.6323 24.1943C24.6903 24.2375 24.6865 24.3277 24.6235 24.3645C23.8263 24.8305 22.9976 25.2242 22.126 25.553C22.0693 25.5746 22.044 25.6407 22.0718 25.6952C22.5523 26.626 23.101 27.5123 23.7052 28.3529C23.7304 28.3885 23.7758 28.4037 23.8175 28.391C26.4322 27.5822 29.0835 26.3619 31.8206 24.3518C31.8446 24.3341 31.8597 24.3074 31.8622 24.2782C32.5294 17.3756 30.7447 11.3797 27.131 6.06436C27.1221 6.04661 27.107 6.0339 27.0894 6.02628ZM10.6934 20.6415C9.11666 20.6415 7.81751 19.194 7.81751 17.4163C7.81751 15.6385 9.09147 14.191 10.6934 14.191C12.3078 14.191 13.5944 15.6512 13.5692 17.4163C13.5692 19.194 12.2952 20.6415 10.6934 20.6415ZM21.3263 20.6415C19.7497 20.6415 18.4505 19.194 18.4505 17.4163C18.4505 15.6385 19.7244 14.191 21.3263 14.191C22.9408 14.191 24.2274 15.6512 24.2022 17.4163C24.2022 19.194 22.9408 20.6415 21.3263 20.6415Z" fill="white"/>
</g>
<defs>
<clipPath id="clip0_1_1789">
<rect width="32" height="32" fill="white" transform="translate(0 0.485474)"/>
</clipPath>
</defs>
</svg>
