<svg width="32" height="33" viewBox="0 0 32 33" fill="none" xmlns="http://www.w3.org/2000/svg">
<path id="Subtract" fill-rule="evenodd" clip-rule="evenodd" d="M16 32.4855C24.8366 32.4855 32 25.322 32 16.4855C32 7.64892 24.8366 0.485474 16 0.485474C7.16344 0.485474 5.3556e-09 7.64892 1.19621e-08 16.4855C1.85685e-08 25.322 7.16344 32.4855 16 32.4855ZM11.9575 9.55377C11.9573 9.53454 12.854 9.06187 13.95 8.50329C15.046 7.94473 15.9624 7.48672 15.9863 7.48549C16.0103 7.48427 16.1472 7.54755 16.2906 7.62621C16.434 7.70488 17.1811 8.09363 17.9508 8.49013C19.5436 9.31051 20.1306 9.61906 20.166 9.65421C20.1926 9.6807 20.0226 9.75955 18.3859 10.4791L17.2997 10.9566L16.6364 10.623L15.9731 10.2894L15.3658 10.5951C15.0318 10.7632 14.7238 10.9019 14.6813 10.9033C14.588 10.9065 11.958 9.60339 11.9575 9.55377ZM8.00206 11.5153L9.14298 10.9387C9.7705 10.6216 10.3318 10.3597 10.3903 10.3568C10.4487 10.3539 11.7169 10.9646 13.2083 11.7139C15.187 12.708 15.8985 13.0927 15.8402 13.1369C15.7962 13.1702 15.4865 13.3161 15.1518 13.4612C14.8171 13.6063 14.4064 13.7873 14.2391 13.8635C14.0225 13.9617 13.8056 14.059 13.5882 14.1553L13.2415 14.3087L12.4625 13.896C12.0048 13.6536 11.5473 13.4106 11.0901 13.1671L10.4969 12.8509L10.4969 15.5182L9.2828 16.0472C8.61507 16.3382 8.05373 16.5763 8.03542 16.5763C8.01704 16.5763 8.00206 15.4376 8.00206 14.0458L8.00206 11.5153ZM18.9575 11.7551C18.9582 11.7383 19.5945 11.4438 20.3716 11.1006C21.1486 10.7573 21.8051 10.4759 21.8306 10.4751C21.8561 10.4742 22.3426 10.7074 22.9118 10.9931L23.9466 11.5128L23.9303 13.0192L23.914 14.5257L23.1838 14.853C22.7822 15.033 21.6733 15.525 20.7195 15.9462C19.6342 16.4255 18.549 16.9052 17.464 17.3851C15.0376 18.4587 13.9074 18.9566 12.4306 19.6026C11.6702 19.9353 11.0472 20.2248 11.0463 20.246C11.0453 20.2673 11.0924 20.3 11.151 20.3187C11.2096 20.3374 11.4765 20.4785 11.7443 20.6324C12.012 20.7862 12.3748 20.9858 12.5505 21.0759C12.7262 21.1661 12.87 21.2578 12.87 21.2797C12.87 21.3017 12.2334 21.6008 11.4552 21.9444L10.0405 22.569L9.02027 22.0604L8 21.5518L8.01625 20.0623C8.02988 18.8135 8.04721 18.5647 8.12376 18.5218C8.19987 18.4793 8.75414 18.2315 10.7707 17.3383L12.7483 16.4636L16.673 14.7279C17.8444 14.2099 19.2613 13.5838 19.8219 13.3367C20.3825 13.0894 20.8411 12.872 20.8411 12.8534C20.8411 12.8347 20.417 12.5869 19.8987 12.3026C19.3804 12.0183 18.9568 11.7719 18.9575 11.7551ZM22.9675 16.8385C23.1831 16.7447 23.4843 16.6082 23.6368 16.5353C23.7893 16.4625 23.9325 16.4007 23.9549 16.398C24.0117 16.3913 24.0165 21.3509 23.9598 21.4349C23.9346 21.4722 23.3877 21.7691 22.7444 22.0947L21.5748 22.6866L18.8368 21.2956C17.3308 20.5305 16.1184 19.8876 16.1425 19.8668C16.1666 19.846 16.6791 19.6163 17.2815 19.3563C17.8839 19.0963 18.455 18.8457 18.5505 18.7994C18.7158 18.7193 18.7599 18.734 19.4632 19.1026C20.4377 19.6135 21.407 20.0999 21.4683 20.1088C21.4952 20.1126 21.5226 19.5207 21.5291 18.7934L21.5409 17.4708L22.0581 17.24C22.3426 17.113 22.7518 16.9324 22.9675 16.8385ZM16.5513 22.613C16.7541 22.5274 16.9569 22.4419 17.1598 22.3566L17.6466 22.1517L18.9194 22.7816C19.6195 23.1281 20.2008 23.4201 20.2114 23.4306C20.2218 23.4412 19.6628 23.7207 18.969 24.0518C18.2751 24.3829 17.32 24.8409 16.8465 25.0696L15.9856 25.4855L13.9393 24.4757C12.1945 23.6146 11.7424 23.3503 12.0144 23.3503C12.0419 23.3503 12.5947 23.1141 13.243 22.8254C13.8912 22.5366 14.4773 22.2787 14.5454 22.2521C14.6362 22.2167 14.8453 22.2897 15.3305 22.526C15.7205 22.7159 15.8673 22.8017 16.0135 22.8007C16.1404 22.7997 16.2668 22.7334 16.5513 22.613Z" fill="white"/>
</svg>
