<svg width="32" height="33" viewBox="0 0 32 33" fill="none" xmlns="http://www.w3.org/2000/svg">
<g id="Social Icons" clip-path="url(#clip0_1_1791)">
<path id="Vector" fill-rule="evenodd" clip-rule="evenodd" d="M32 16.4855C32 25.322 24.8366 32.4855 16 32.4855C7.16344 32.4855 1.85685e-08 25.322 1.19621e-08 16.4855C5.3556e-09 7.64892 7.16344 0.485474 16 0.485474C24.8366 0.485474 32 7.64892 32 16.4855ZM16.5734 12.2974C15.0171 12.9447 11.9068 14.2844 7.24252 16.3166C6.48511 16.6178 6.08834 16.9124 6.05222 17.2005C5.99118 17.6875 6.60095 17.8792 7.43129 18.1403C7.54424 18.1758 7.66127 18.2126 7.78125 18.2516C8.59818 18.5172 9.6971 18.8278 10.2684 18.8402C10.7866 18.8514 11.365 18.6377 12.0035 18.1993C16.3615 15.2575 18.6112 13.7706 18.7524 13.7385C18.8521 13.7159 18.9901 13.6874 19.0837 13.7706C19.1772 13.8538 19.168 14.0112 19.1581 14.0535C19.0977 14.311 16.7042 16.5363 15.4655 17.6878C15.0793 18.0468 14.8054 18.3015 14.7494 18.3597C14.624 18.4899 14.4962 18.6132 14.3733 18.7316C13.6144 19.4632 13.0452 20.0119 14.4048 20.9079C15.0582 21.3384 15.581 21.6945 16.1026 22.0497C16.6722 22.4376 17.2404 22.8245 17.9755 23.3064C18.1628 23.4291 18.3416 23.5566 18.5159 23.6808C19.1788 24.1534 19.7743 24.578 20.5101 24.5103C20.9377 24.471 21.3793 24.069 21.6036 22.8699C22.1336 20.0363 23.1755 13.8967 23.4163 11.3668C23.4374 11.1451 23.4108 10.8614 23.3895 10.7369C23.3682 10.6124 23.3237 10.435 23.1618 10.3036C22.9701 10.1481 22.6742 10.1153 22.5418 10.1176C21.94 10.1282 21.0167 10.4492 16.5734 12.2974Z" fill="white"/>
</g>
<defs>
<clipPath id="clip0_1_1791">
<rect width="32" height="32" fill="white" transform="translate(0 0.485474)"/>
</clipPath>
</defs>
</svg>
